<?xml version="1.0" encoding="utf-8"?>
<!-- Generator: Adobe Illustrator 27.8.0, SVG Export Plug-In . SVG Version: 6.00 Build 0)  -->
<svg version="1.1" id="Ebene_1" xmlns="http://www.w3.org/2000/svg" xmlns:xlink="http://www.w3.org/1999/xlink" x="0px" y="0px"
	 viewBox="0 0 2000 2000" style="enable-background:new 0 0 2000 2000;" xml:space="preserve">
<style type="text/css">
	.st0{fill:#F2F2F2;}
</style>
<g>
	<path class="st0" d="M906.9,931.6l8-9.1c6.9,10.2,16.2,15.6,27.4,15.6c15.6,0,23.6-9.3,23.6-28v-77h-46.5v-11.6h59.7v88.1
		c0,26.9-12.7,40.1-37,40.1C927.8,949.7,914.7,943.2,906.9,931.6z"/>
	<path class="st0" d="M1102.8,853.1v95.5h-12.3v-17.4c-6.7,11.6-19.1,18.3-34.3,18.3c-24.3,0-40.3-13.6-40.3-41v-55.4h12.9v54.1
		c0,20.3,10.5,30.7,28.7,30.7c20,0,32.5-12.9,32.5-34.7v-50.1H1102.8z"/>
	<path class="st0" d="M1226.9,893.3v55.4H1214v-54.1c0-20.2-10.5-30.5-28.7-30.5c-20.5,0-33.4,12.7-33.4,34.5v50.1H1139v-95.5h12.3
		v17.6c6.9-11.6,19.8-18.3,36.3-18.3C1210.9,852.4,1226.9,865.8,1226.9,893.3z"/>
	<path class="st0" d="M1350.7,853.1V937c0,32.9-16.2,47.8-47.8,47.8c-17.4,0-34.5-5.3-44.5-14.7l6.5-9.8
		c9.1,8.2,22.9,13.1,37.6,13.1c24.2,0,35.2-11.1,35.2-34.7v-12.2c-8,12.2-21.6,18.5-37.2,18.5c-27.2,0-47.9-19.1-47.9-46.5
		c0-27.4,20.7-46.1,47.9-46.1c16,0,29.8,6.5,37.8,19.1v-18.3H1350.7z M1338.2,898.5c0-20.7-15.3-34.9-36.3-34.9
		c-21.1,0-36.1,14.2-36.1,34.9c0,20.7,15.1,35,36.1,35C1322.9,933.6,1338.2,919.2,1338.2,898.5z"/>
	<path class="st0" d="M1470,904.9h-79.9c1.5,20,16.7,33.2,37.6,33.2c11.6,0,22-4.2,29.2-12.5l7.3,8.4c-8.5,10.2-21.8,15.6-36.9,15.6
		c-29.8,0-50.1-20.3-50.1-48.7c0-28.3,19.8-48.5,46.7-48.5c26.9,0,46.3,19.8,46.3,48.5C1470.2,902,1470,903.4,1470,904.9z
		 M1390.1,895.3h67.7c-1.6-18.7-15.3-31.8-34-31.8C1405.4,863.5,1391.7,876.6,1390.1,895.3z"/>
	<path class="st0" d="M1483.3,937.8l5.8-10.2c7.6,6,20.5,10.7,34,10.7c18.2,0,25.6-6.2,25.6-15.6c0-24.9-61.9-5.3-61.9-43
		c0-15.6,13.4-27.2,37.8-27.2c12.3,0,25.8,3.5,33.8,8.9l-5.6,10.4c-8.4-5.8-18.3-8.2-28.1-8.2c-17.3,0-24.9,6.7-24.9,15.8
		c0,25.8,61.9,6.4,61.9,43c0,16.5-14.5,27.2-39.4,27.2C1506.3,949.6,1491.1,944.5,1483.3,937.8z"/>
	<path class="st0" d="M952.3,1063.1v33.6h58.8v23.6h-58.8v46.3h-29.4v-127.1h96.1v23.6H952.3z"/>
	<path class="st0" d="M1095.7,1067.4v26.2c-2.4-0.2-4.2-0.4-6.4-0.4c-15.6,0-26,8.5-26,27.2v46.1h-28.3v-97.7h27.1v12.9
		C1069.1,1072.3,1080.7,1067.4,1095.7,1067.4z"/>
	<path class="st0" d="M1206.9,1125.7H1133c2.7,12.2,13.1,19.6,28,19.6c10.4,0,17.8-3.1,24.5-9.4l15.1,16.3
		c-9.1,10.4-22.7,15.8-40.3,15.8c-33.8,0-55.8-21.2-55.8-50.3c0-29.2,22.3-50.3,52.1-50.3c28.7,0,50.8,19.2,50.8,50.7
		C1207.4,1120.3,1207.1,1123.3,1206.9,1125.7z M1132.6,1109.2h48.1c-2-12.3-11.3-20.3-24-20.3
		C1143.9,1088.8,1134.6,1096.7,1132.6,1109.2z"/>
	<path class="st0" d="M1222.9,1039.4c0-8.9,7.1-15.8,17.6-15.8c10.5,0,17.6,6.5,17.6,15.3c0,9.4-7.1,16.3-17.6,16.3
		C1229.9,1055.2,1222.9,1048.3,1222.9,1039.4z M1226.3,1068.9h28.3v97.7h-28.3V1068.9z"/>
	<path class="st0" d="M1387.4,1117.7c0,30.7-21.2,50.3-48.7,50.3c-13.1,0-23.6-4.2-30.7-12.7v11.3H1281v-134.7h28.3v47.4
		c7.3-8,17.3-11.8,29.4-11.8C1366.1,1067.4,1387.4,1087,1387.4,1117.7z M1358.7,1117.7c0-16.9-10.7-27.1-24.9-27.1
		c-14.2,0-24.9,10.2-24.9,27.1c0,16.9,10.7,27.1,24.9,27.1C1348,1144.8,1358.7,1134.6,1358.7,1117.7z"/>
	<path class="st0" d="M1504.7,1068.9v97.7h-26.9v-11.6c-7.4,8.5-18.3,13.1-30.3,13.1c-24.5,0-41.8-13.8-41.8-43.9v-55.2h28.3v51
		c0,16.3,7.3,23.6,19.8,23.6c13.1,0,22.5-8.4,22.5-26.3v-48.3H1504.7z"/>
	<path class="st0" d="M1591.7,1067.4v26.2c-2.4-0.2-4.2-0.4-6.4-0.4c-15.6,0-26,8.5-26,27.2v46.1H1531v-97.7h27.1v12.9
		C1565,1072.3,1576.6,1067.4,1591.7,1067.4z"/>
	<path class="st0" d="M1708.5,1068.9v81.4c0,36.3-19.6,53-54.8,53c-18.5,0-36.5-4.5-47.9-13.4l11.3-20.3c8.4,6.7,22,11.1,34.5,11.1
		c20,0,28.7-9.1,28.7-26.7v-4.2c-7.4,8.2-18.2,12.2-30.9,12.2c-27.1,0-48.8-18.7-48.8-47.2c0-28.5,21.8-47.2,48.8-47.2
		c13.6,0,24.9,4.5,32.3,14v-12.5H1708.5z M1680.5,1114.6c0-14.3-10.7-24-25.6-24c-14.9,0-25.8,9.6-25.8,24c0,14.3,10.9,24,25.8,24
		C1669.8,1138.6,1680.5,1129,1680.5,1114.6z"/>
</g>
<path class="st0" d="M774,727.1H354.9c-35,0-63.4,28.4-63.4,63.4v419.1c0,35,28.4,63.4,63.4,63.4H774c35,0,63.4-28.4,63.4-63.4
	V790.4C837.4,755.4,809.1,727.1,774,727.1z M462.9,1148c-32.5,5.1-63.1-2.8-84.4-22.8l25.2-42.3c15.9,15.5,31.9,22.2,49.1,19.5
	c22.5-3.6,32.1-18.9,27.9-45.5l-18.2-115.1l-85,13.5l-7.1-44.9L511,888.2l24.9,156.9C545.3,1104.9,519.9,1139,462.9,1148z
	 M660.6,1112.5l-56,8.9l-38.3-241.9l182.8-29l7.1,44.9l-126.8,20.1l10.1,63.9l112-17.7l7.1,44.9l-112,17.7L660.6,1112.5z"/>
</svg>
